<svg width="190" height="32" viewBox="0 0 190 32" fill="none" xmlns="http://www.w3.org/2000/svg">
    <mask id="mask0_17395_183517" style="mask-type:luminance" maskUnits="userSpaceOnUse" x="0" y="0" width="32"
        height="32">
        <path fill-rule="evenodd" clip-rule="evenodd" d="M0 0H32V32H0V0Z" fill="white" />
    </mask>
    <g mask="url(#mask0_17395_183517)">
        <path
            d="M5.62741 30.5454H26.2533C28.8763 30.5454 30.5454 28.8763 30.5454 26.3725V5.7466C30.5454 3.12365 28.8763 1.4545 26.3726 1.4545H5.74664C3.12369 1.4545 1.45454 3.12365 1.45454 5.62738V26.2533C1.45454 28.8763 3.12369 30.5454 5.62741 30.5454ZM16 23.3522C11.7079 23.3522 8.68752 20.2126 8.68752 16.0397C8.68752 11.6681 11.7079 8.56826 16 8.56826C20.2523 8.56826 23.3125 11.7079 23.3125 16.0397C23.3125 20.2523 20.2523 23.3522 16 23.3522Z"
            fill="#824CE6" />
    </g>
    <path
        d="M40 17.5323C40 16.3251 40.258 15.2501 40.7741 14.3073C41.2902 13.3642 42.0144 12.6279 42.9469 12.0984C43.8794 11.5686 44.9507 11.3037 46.161 11.3037C47.3709 11.3037 48.4466 11.5701 49.388 12.103C50.3294 12.6359 51.0582 13.3751 51.5743 14.3208C52.0903 15.2664 52.3484 16.3369 52.3484 17.5323V25.6774H49.5161V17.3395C49.5161 16.617 49.3641 15.9961 49.06 15.4767C48.7559 14.957 48.3492 14.5609 47.8398 14.2884C47.3307 14.0157 46.7727 13.8793 46.1656 13.8793C45.5582 13.8793 44.9999 14.0157 44.4905 14.2884C43.9812 14.5609 43.5774 14.957 43.2791 15.4767C42.9812 15.9961 42.8322 16.617 42.8322 17.3395V25.6774H40V17.5323Z"
        fill="#BEFF24" />
    <path
        d="M70.266 25.6774H67.9937L67.8992 22.7885C66.7881 24.4837 65.2006 25.4613 63.1369 25.7211C61.0735 25.981 59.2239 25.4684 57.5884 24.1834C55.9528 22.8981 55.1413 21.0448 55.1539 18.6235C55.1603 17.194 55.4868 15.9261 56.1334 14.8197C56.7802 13.7134 57.6708 12.8508 58.8052 12.232C59.9395 11.6131 61.2367 11.3037 62.6967 11.3037C64.1461 11.3037 65.4395 11.5981 66.5769 12.187C67.7144 12.7756 68.6078 13.6117 69.2571 14.6954C69.9065 15.7791 70.2428 17.0404 70.266 18.4794V25.6774ZM57.8437 18.6517C57.8437 19.5648 58.0529 20.3858 58.4713 21.1147C58.8899 21.8436 59.4663 22.4161 60.2005 22.8322C60.9347 23.248 61.7699 23.4559 62.706 23.4559C63.6241 23.4559 64.4578 23.2409 65.2068 22.8108C65.9559 22.3807 66.5396 21.7982 66.9579 21.0634C67.3765 20.3287 67.5858 19.5248 67.5858 18.6517C67.5858 17.7156 67.3765 16.8801 66.9579 16.1454C66.5396 15.4106 65.9588 14.8382 65.2156 14.4283C64.4725 14.0181 63.6359 13.8129 62.706 13.8129C61.7699 13.8129 60.9318 14.0165 60.1917 14.4237C59.4516 14.8305 58.8752 15.4013 58.4624 16.1361C58.05 16.8709 57.8437 17.7094 57.8437 18.6517Z"
        fill="#BEFF24" />
    <path
        d="M80.454 26C79.0427 26 77.7613 25.6774 76.6099 25.0323C75.4584 24.3871 74.5501 23.5045 73.8847 22.3844C73.2194 21.2643 72.8868 20.0233 72.8868 18.6613C72.8868 16.3987 73.6562 14.6223 75.1952 13.332C76.7342 12.0417 78.4994 11.4256 80.4909 11.4839C82.4824 11.5421 84.0427 12.2657 85.1717 13.6546V6H87.9943V18.8226C87.9943 20.1712 87.665 21.392 87.0064 22.4852C86.3478 23.5784 85.4439 24.4375 84.2947 25.0625C83.1455 25.6875 81.8653 26 80.454 26ZM80.454 23.5C81.3679 23.5 82.1934 23.2872 82.9304 22.8616C83.6675 22.4359 84.2488 21.8524 84.6744 21.1109C85.1 20.3694 85.3128 19.5529 85.3128 18.6613C85.3128 17.7339 85.1011 16.9028 84.6778 16.168C84.2544 15.4332 83.6731 14.8586 82.9338 14.4442C82.1946 14.0298 81.3679 13.8226 80.454 13.8226C79.54 13.8226 78.71 14.0332 77.964 14.4543C77.2181 14.8754 76.6323 15.4568 76.2067 16.1983C75.781 16.9397 75.5682 17.7608 75.5682 18.6613C75.5682 19.5529 75.781 20.3694 76.2067 21.1109C76.6323 21.8524 77.2181 22.4359 77.964 22.8616C78.71 23.2872 79.54 23.5 80.454 23.5Z"
        fill="#BEFF24" />
    <path
        d="M96.1873 20.3514L92.5079 25.6677H89.4051L94.6693 18.258L89.9587 11.6262H93.061L96.1873 16.2515L99.3136 11.6262H102.416L97.7149 18.258L102.969 25.6677H99.8672L96.1873 20.3514Z"
        fill="#BEFF24" />
    <path
        d="M142.007 11.7955C141.901 11.7955 141.804 11.7869 141.715 11.7699C141.627 11.7543 141.556 11.7358 141.504 11.7145L141.683 11.1136C141.795 11.1463 141.895 11.1619 141.983 11.1605C142.071 11.1591 142.149 11.1314 142.215 11.0774C142.284 11.0249 142.341 10.9368 142.388 10.8132L142.454 10.6364L141.267 7.29545H142.085L142.84 9.76704H142.874L143.63 7.29545H144.45L143.14 10.9645C143.079 11.1378 142.998 11.2862 142.897 11.4098C142.796 11.5348 142.673 11.63 142.526 11.6953C142.382 11.7621 142.208 11.7955 142.007 11.7955Z"
        fill="#61656C" />
    <path
        d="M137.893 10.5682V6.20454H138.665V7.83665H138.697C138.736 7.7571 138.792 7.67258 138.865 7.5831C138.937 7.49219 139.035 7.41477 139.159 7.35085C139.283 7.28551 139.44 7.25284 139.632 7.25284C139.885 7.25284 140.113 7.31747 140.316 7.44673C140.52 7.57457 140.682 7.7642 140.802 8.01562C140.922 8.26562 140.983 8.57244 140.983 8.93608C140.983 9.29545 140.924 9.60085 140.806 9.85227C140.688 10.1037 140.528 10.2955 140.324 10.4276C140.121 10.5597 139.891 10.6257 139.634 10.6257C139.447 10.6257 139.291 10.5945 139.167 10.532C139.044 10.4695 138.944 10.3942 138.869 10.3061C138.795 10.2166 138.738 10.1321 138.697 10.0526H138.652V10.5682H137.893ZM138.65 8.93182C138.65 9.14346 138.68 9.32883 138.739 9.48793C138.8 9.64702 138.888 9.77131 139.001 9.86079C139.116 9.94886 139.256 9.9929 139.419 9.9929C139.589 9.9929 139.732 9.94744 139.847 9.85653C139.962 9.7642 140.049 9.63849 140.107 9.4794C140.167 9.31889 140.197 9.13636 140.197 8.93182C140.197 8.72869 140.167 8.54829 140.109 8.39062C140.051 8.23295 139.964 8.10937 139.849 8.01989C139.734 7.9304 139.591 7.88565 139.419 7.88565C139.254 7.88565 139.114 7.92898 138.999 8.01562C138.884 8.10227 138.797 8.22372 138.737 8.37997C138.679 8.53622 138.65 8.72017 138.65 8.93182Z"
        fill="#61656C" />
    <path
        d="M133.806 10.6257C133.549 10.6257 133.319 10.5597 133.116 10.4276C132.913 10.2955 132.752 10.1037 132.634 9.85227C132.516 9.60085 132.457 9.29545 132.457 8.93608C132.457 8.57244 132.517 8.26562 132.636 8.01562C132.757 7.7642 132.92 7.57457 133.124 7.44673C133.329 7.31747 133.557 7.25284 133.808 7.25284C134 7.25284 134.158 7.28551 134.281 7.35085C134.405 7.41477 134.503 7.49219 134.575 7.5831C134.648 7.67258 134.704 7.7571 134.744 7.83665H134.776V6.20454H135.549V10.5682H134.791V10.0526H134.744C134.704 10.1321 134.646 10.2166 134.571 10.3061C134.496 10.3942 134.396 10.4695 134.273 10.532C134.149 10.5945 133.994 10.6257 133.806 10.6257ZM134.021 9.9929C134.185 9.9929 134.324 9.94886 134.439 9.86079C134.554 9.77131 134.641 9.64702 134.701 9.48793C134.761 9.32883 134.791 9.14346 134.791 8.93182C134.791 8.72017 134.761 8.53622 134.701 8.37997C134.643 8.22372 134.556 8.10227 134.441 8.01562C134.327 7.92898 134.188 7.88565 134.021 7.88565C133.849 7.88565 133.706 7.9304 133.591 8.01989C133.476 8.10937 133.389 8.23295 133.331 8.39062C133.273 8.54829 133.244 8.72869 133.244 8.93182C133.244 9.13636 133.273 9.31889 133.331 9.4794C133.391 9.63849 133.478 9.7642 133.593 9.85653C133.71 9.94744 133.852 9.9929 134.021 9.9929Z"
        fill="#61656C" />
    <path
        d="M130.484 10.6321C130.156 10.6321 129.872 10.5639 129.634 10.4276C129.397 10.2898 129.214 10.0952 129.086 9.84375C128.958 9.59091 128.894 9.29332 128.894 8.95099C128.894 8.61435 128.958 8.31889 129.086 8.06463C129.215 7.80895 129.396 7.61008 129.627 7.46804C129.859 7.32457 130.131 7.25284 130.443 7.25284C130.645 7.25284 130.835 7.28551 131.014 7.35085C131.195 7.41477 131.354 7.5142 131.492 7.64915C131.631 7.78409 131.74 7.95597 131.82 8.16477C131.899 8.37216 131.939 8.61932 131.939 8.90625V9.14275H129.257V8.62287H131.2C131.198 8.47514 131.166 8.34375 131.104 8.22869C131.041 8.11222 130.954 8.0206 130.842 7.95383C130.731 7.88707 130.602 7.85369 130.454 7.85369C130.296 7.85369 130.158 7.89204 130.039 7.96875C129.919 8.04403 129.826 8.14347 129.759 8.26704C129.694 8.3892 129.661 8.52344 129.659 8.66974V9.12358C129.659 9.31392 129.694 9.47727 129.764 9.61364C129.833 9.74858 129.931 9.85227 130.056 9.92472C130.181 9.99574 130.327 10.0312 130.495 10.0312C130.607 10.0312 130.708 10.0156 130.799 9.98437C130.89 9.9517 130.969 9.90412 131.036 9.84162C131.102 9.77912 131.153 9.7017 131.187 9.60937L131.907 9.69034C131.862 9.88068 131.775 10.0469 131.647 10.1889C131.521 10.3295 131.359 10.4389 131.161 10.517C130.964 10.5937 130.738 10.6321 130.484 10.6321Z"
        fill="#61656C" />
    <path
        d="M126.791 10.5682V7.29545H127.539V7.84091H127.573C127.632 7.65199 127.735 7.50639 127.88 7.40412C128.026 7.30042 128.193 7.24858 128.38 7.24858C128.423 7.24858 128.471 7.25071 128.523 7.25497C128.577 7.25781 128.622 7.26278 128.657 7.26988V7.9794C128.625 7.96804 128.573 7.95809 128.502 7.94957C128.432 7.93963 128.365 7.93466 128.299 7.93466C128.159 7.93466 128.032 7.9652 127.92 8.02628C127.809 8.08594 127.722 8.16903 127.658 8.27557C127.594 8.3821 127.562 8.50497 127.562 8.64417V10.5682H126.791Z"
        fill="#61656C" />
    <path
        d="M124.683 10.6321C124.355 10.6321 124.072 10.5639 123.833 10.4276C123.596 10.2898 123.413 10.0952 123.285 9.84375C123.158 9.59091 123.094 9.29332 123.094 8.95099C123.094 8.61435 123.158 8.31889 123.285 8.06463C123.415 7.80895 123.595 7.61008 123.827 7.46804C124.058 7.32457 124.33 7.25284 124.643 7.25284C124.844 7.25284 125.035 7.28551 125.214 7.35085C125.394 7.41477 125.553 7.5142 125.691 7.64915C125.83 7.78409 125.939 7.95597 126.019 8.16477C126.099 8.37216 126.138 8.61932 126.138 8.90625V9.14275H123.456V8.62287H125.399C125.398 8.47514 125.366 8.34375 125.303 8.22869C125.241 8.11222 125.153 8.0206 125.041 7.95383C124.93 7.88707 124.801 7.85369 124.653 7.85369C124.496 7.85369 124.357 7.89204 124.238 7.96875C124.118 8.04403 124.025 8.14347 123.959 8.26704C123.893 8.3892 123.86 8.52344 123.859 8.66974V9.12358C123.859 9.31392 123.893 9.47727 123.963 9.61364C124.033 9.74858 124.13 9.85227 124.255 9.92472C124.38 9.99574 124.526 10.0312 124.694 10.0312C124.806 10.0312 124.908 10.0156 124.998 9.98437C125.089 9.9517 125.168 9.90412 125.235 9.84162C125.302 9.77912 125.352 9.7017 125.386 9.60937L126.106 9.69034C126.061 9.88068 125.974 10.0469 125.846 10.1889C125.72 10.3295 125.558 10.4389 125.361 10.517C125.163 10.5937 124.937 10.6321 124.683 10.6321Z"
        fill="#61656C" />
    <path
        d="M118.982 10.5682L118.057 7.29545H118.843L119.419 9.59659H119.449L120.037 7.29545H120.814L121.402 9.5838H121.434L122.001 7.29545H122.789L121.863 10.5682H121.059L120.446 8.35653H120.401L119.787 10.5682H118.982Z"
        fill="#61656C" />
    <path
        d="M116.177 10.6321C115.858 10.6321 115.581 10.5618 115.346 10.4212C115.112 10.2805 114.93 10.0838 114.801 9.83097C114.673 9.57812 114.609 9.28267 114.609 8.9446C114.609 8.60653 114.673 8.31037 114.801 8.05611C114.93 7.80185 115.112 7.6044 115.346 7.46378C115.581 7.32315 115.858 7.25284 116.177 7.25284C116.497 7.25284 116.774 7.32315 117.008 7.46378C117.243 7.6044 117.424 7.80185 117.552 8.05611C117.681 8.31037 117.746 8.60653 117.746 8.9446C117.746 9.28267 117.681 9.57812 117.552 9.83097C117.424 10.0838 117.243 10.2805 117.008 10.4212C116.774 10.5618 116.497 10.6321 116.177 10.6321ZM116.182 10.0142C116.355 10.0142 116.5 9.96662 116.616 9.87145C116.733 9.77486 116.819 9.6456 116.876 9.48366C116.935 9.32173 116.964 9.14133 116.964 8.94247C116.964 8.74219 116.935 8.56108 116.876 8.39915C116.819 8.23579 116.733 8.10582 116.616 8.00923C116.5 7.91264 116.355 7.86435 116.182 7.86435C116.004 7.86435 115.856 7.91264 115.738 8.00923C115.622 8.10582 115.535 8.23579 115.476 8.39915C115.42 8.56108 115.391 8.74219 115.391 8.94247C115.391 9.14133 115.42 9.32173 115.476 9.48366C115.535 9.6456 115.622 9.77486 115.738 9.87145C115.856 9.96662 116.004 10.0142 116.182 10.0142Z"
        fill="#61656C" />
    <path
        d="M110.969 10.5682V6.20454H112.606C112.941 6.20454 113.222 6.26704 113.45 6.39204C113.678 6.51704 113.851 6.68892 113.967 6.90767C114.085 7.125 114.144 7.37216 114.144 7.64915C114.144 7.92898 114.085 8.17756 113.967 8.39489C113.849 8.61221 113.675 8.78338 113.445 8.90838C113.215 9.03196 112.932 9.09375 112.595 9.09375H111.511V8.44389H112.489C112.685 8.44389 112.845 8.4098 112.97 8.34162C113.095 8.27344 113.188 8.17969 113.247 8.06037C113.308 7.94105 113.339 7.80398 113.339 7.64915C113.339 7.49432 113.308 7.35795 113.247 7.24006C113.188 7.12216 113.094 7.03054 112.968 6.9652C112.843 6.89844 112.682 6.86506 112.484 6.86506H111.76V10.5682H110.969Z"
        fill="#61656C" />
    <path
        d="M117.122 19.0605L117.098 14.5999H120.523V25.7955L114.414 20.7967V25.3406H110.994L110.969 14.2331L117.122 19.0605Z"
        fill="#61656C" />
    <path
        d="M122.257 14.5999H128.971V17.3353H125.679V18.5302H128.971V21.0748H125.679V22.6135H128.971V25.3406H122.257V14.5999Z"
        fill="#61656C" />
    <path
        d="M130.818 14.5999H134.242V25.3406H130.818V14.5999ZM131.991 19.2703H135.65L140.624 25.3406H136.44L131.991 19.2703ZM133.133 18.4789H135.297C135.569 18.4789 135.775 18.4319 135.918 18.3379C136.061 18.2437 136.132 18.0997 136.132 17.9057C136.132 17.7117 136.061 17.5684 135.918 17.4758C135.775 17.3832 135.569 17.3369 135.297 17.3369H133.147V14.5999H135.646C136.81 14.5999 137.753 14.8725 138.474 15.4177C139.196 15.9629 139.556 16.7882 139.556 17.8935C139.556 18.5333 139.383 19.0922 139.035 19.5702C138.688 20.0481 138.217 20.4133 137.624 20.6656C137.03 20.9178 136.371 21.0439 135.646 21.0439H133.133V18.4789Z"
        fill="#61656C" />
    <path
        d="M145.093 14.5999C146.164 14.5999 147.119 14.8269 147.957 15.281C148.795 15.735 149.448 16.3691 149.915 17.1833C150.383 17.9975 150.617 18.9213 150.617 19.9547C150.617 20.9899 150.383 21.9172 149.914 22.7366C149.445 23.556 148.792 24.1949 147.954 24.6532C147.116 25.1115 146.162 25.3406 145.093 25.3406H140.861V14.5999H145.093ZM144.963 22.2652C145.446 22.2652 145.866 22.1618 146.222 21.955C146.578 21.7482 146.853 21.4625 147.046 21.098C147.24 20.7335 147.337 20.3161 147.337 19.846C147.337 19.3741 147.24 18.9586 147.046 18.5992C146.853 18.2399 146.578 17.9598 146.222 17.759C145.866 17.5581 145.446 17.4577 144.96 17.4577H144.288V22.2652H144.963Z"
        fill="#61656C" />
    <path
        d="M151.483 22.6036H157.428L159.461 25.3406H151.483V22.6036ZM151.483 14.5999H159.461V17.3369H151.483V14.5999ZM151.483 18.6004H159.461V21.3374H151.483V18.6004Z"
        fill="#61656C" />
    <path d="M161.641 14.5369H165.102V22.6384H168.58V25.3923H161.641V14.5369Z" fill="#61656C" />
    <path
        d="M175.957 24.5815H172.815L172.461 25.3923H168.768L174.376 13.7955L180.009 25.3923H176.311L175.957 24.5815ZM175.243 22.3719L174.386 20.4837L173.539 22.3719H175.243Z"
        fill="#61656C" />
    <path
        d="M180.75 14.5369H185.593C186.337 14.5369 187.02 14.6454 187.642 14.8623C188.264 15.0792 188.761 15.4079 189.133 15.8485C189.506 16.289 189.692 16.83 189.692 17.4714C189.692 17.8443 189.629 18.1805 189.504 18.48C189.379 18.7794 189.207 19.0415 188.986 19.2662C188.766 19.491 188.51 19.672 188.219 19.8094C188.569 19.96 188.875 20.1554 189.137 20.3956C189.399 20.6358 189.603 20.9238 189.75 21.2597C189.896 21.5955 189.969 21.9669 189.969 22.374C189.969 23.0637 189.773 23.6344 189.38 24.0861C188.986 24.5377 188.476 24.8682 187.849 25.0779C187.223 25.2875 186.544 25.3923 185.812 25.3923H180.75V14.5369ZM185.621 22.7848C185.817 22.7848 185.981 22.7504 186.115 22.6815C186.25 22.6126 186.349 22.5171 186.414 22.3951C186.479 22.2729 186.511 22.1356 186.511 21.9833C186.511 21.8275 186.476 21.6874 186.404 21.5632C186.332 21.439 186.228 21.3432 186.094 21.2759C185.959 21.2084 185.801 21.1746 185.621 21.1746H184.211V22.7848H185.621ZM185.548 18.6063C185.827 18.6063 186.037 18.5457 186.178 18.4244C186.319 18.3032 186.389 18.1402 186.389 17.9355C186.389 17.7361 186.319 17.5788 186.178 17.4637C186.037 17.3485 185.827 17.2909 185.548 17.2909H184.211V18.6063H185.548Z"
        fill="#61656C" />
</svg>