<svg width="16" height="16" viewBox="0 0 16 16" fill="none" xmlns="http://www.w3.org/2000/svg">
    <path
        d="M15.7605 9.9353C14.6919 14.221 10.3507 16.8292 6.06401 15.7605C1.77906 14.692 -0.829473 10.351 0.23964 6.06559C1.30775 1.77938 5.64897 -0.829093 9.93442 0.239397C14.2209 1.30789 16.8292 5.64934 15.7605 9.9353Z"
        fill="#F7931A" />
    <path
        d="M11.5276 6.86031C11.6869 5.79582 10.8763 5.22358 9.76793 4.84183L10.1275 3.39984L9.24963 3.1811L8.89959 4.58508C8.66882 4.52758 8.43179 4.47333 8.19626 4.41959L8.5488 3.00635L7.67146 2.7876L7.31167 4.22908C7.12065 4.18558 6.93313 4.14259 6.75111 4.09734L6.75211 4.09284L5.54149 3.79059L5.30797 4.72808C5.30797 4.72808 5.95928 4.87733 5.94553 4.88658C6.30107 4.97532 6.36532 5.21057 6.35457 5.39707L5.94503 7.03981C5.96953 7.04606 6.00129 7.05506 6.03629 7.06906C6.00704 7.06181 5.97578 7.0538 5.94353 7.04605L5.36947 9.34729C5.32596 9.45528 5.2157 9.61728 4.96718 9.55578C4.97593 9.56853 4.32911 9.39653 4.32911 9.39653L3.89331 10.4013L5.03568 10.686C5.2482 10.7393 5.45647 10.795 5.6615 10.8475L5.29821 12.306L6.17505 12.5248L6.53484 11.0818C6.77437 11.1468 7.00689 11.2068 7.23442 11.2633L6.87588 12.6995L7.75372 12.9182L8.11701 11.4625C9.61392 11.7458 10.7395 11.6315 11.2133 10.2778C11.5951 9.18778 11.1943 8.55904 10.4068 8.14905C10.9803 8.0168 11.4124 7.63955 11.5276 6.86031ZM9.52191 9.67253C9.25063 10.7625 7.41518 10.1733 6.82012 10.0255L7.30217 8.09329C7.89724 8.24179 9.80544 8.53579 9.52191 9.67253ZM9.79343 6.84456C9.54591 7.83605 8.01825 7.3323 7.52269 7.2088L7.95974 5.45633C8.4553 5.57982 10.0512 5.81032 9.79343 6.84456Z"
        fill="white" />
</svg>